<svg width="12" height="12" fill="none" xmlns="http://www.w3.org/2000/svg"><path d="M12 7.02V4.98a.64.64 0 0 0-.64-.65h-3.7V.64A.64.64 0 0 0 7.03 0H4.98a.64.64 0 0 0-.65.64v3.7H.64a.64.64 0 0 0-.64.64v2.04c0 .36.29.65.64.65h3.7v3.69c0 .35.28.64.64.64h2.04c.36 0 .65-.29.65-.64v-3.7h3.69c.35 0 .64-.28.64-.64Z" fill="#000"/><mask id="a" style="mask-type:alpha" maskUnits="userSpaceOnUse" x="0" y="0" width="12" height="12"><path d="M12 7.02V4.98a.64.64 0 0 0-.64-.65h-3.7V.64A.64.64 0 0 0 7.03 0H4.98a.64.64 0 0 0-.65.64v3.7H.64a.64.64 0 0 0-.64.64v2.04c0 .36.29.65.64.65h3.7v3.69c0 .35.28.64.64.64h2.04c.36 0 .65-.29.65-.64v-3.7h3.69c.35 0 .64-.28.64-.64Z" fill="#fff"/></mask><g mask="url(#a)"><path fill="#FF7E1B" d="M-.86-.86h13.71v13.71H-.86z"/></g></svg>