<svg width="22" height="20" fill="none" xmlns="http://www.w3.org/2000/svg"><path fill-rule="evenodd" clip-rule="evenodd" d="M3.86 3.64h17.06a.9.9 0 0 1 .87 1.11l-1.82 7.29a.9.9 0 0 1-.81.68l-14.33.84c.26.6.85 1 1.53 1h10.01a2.72 2.72 0 1 1-2.55 1.8h-4.9a2.72 2.72 0 1 1-4.7-.75 3.45 3.45 0 0 1-1.3-2.33L1.96 2.37l-.05-.58h-1A.9.9 0 0 1 .9 0h1.82a.9.9 0 0 1 .89.82l.25 2.82Zm1.57 13.64a.93.93 0 1 0 1.86 0 .93.93 0 0 0-1.86 0Zm10.94.93a.93.93 0 1 1 0-1.85.93.93 0 0 1 0 1.85ZM4.6 11.78l13.8-.82 1.39-5.53H4.02l.57 6.35Z" fill="#fff"/></svg>