<svg width="138" height="20" fill="none" xmlns="http://www.w3.org/2000/svg"><path fill-rule="evenodd" clip-rule="evenodd" d="M82.3 10.96 88.83 20H83.6l-4.36-6.04-3.02 2.98v3.01h-4.18V0h4.18v11.22l6.84-6.75h5.82l-6.58 6.49ZM51.6 14.6c-.43 3.33-3.12 5.4-8.21 5.4-5.32 0-8.34-2.68-8.34-7.85 0-5.07 3.1-7.84 8.34-7.84a9 9 0 0 1 5.25 1.46c3 2.02 3.26 5.3 3.02 7.44H39.14c.28 2.08 1.52 3.1 4.25 3.1 2.5 0 3.75-.7 4.14-1.71h4.07ZM8.22 20c4.76 0 7.52-.75 7.52-4.6 0-3.4-3.38-4.18-6.66-4.69l-.56-.08-.28-.04-.35-.06c-2.7-.4-3.18-.78-3.18-1.47 0-.48.49-1.33 2.84-1.33 2.45 0 3.5.65 3.5 1.87v.14h4.27V9.6c0-2.39-1.35-5.24-7.77-5.24-5.95 0-7.2 2.59-7.2 4.76 0 3.1 2.76 4.08 7.22 4.67l.66.08c1.67.2 3.17.42 3.17 1.59 0 1-1.61 1.22-3.3 1.22-2.8 0-3.78-.6-3.78-1.92v-.13H0v.61c0 .8.12 1.92 1.06 2.87C2.3 19.36 4.7 20 8.22 20Zm13.2 0v-7.49c0-2.1.55-4.42 4.18-4.42 3.81 0 3.79 2.63 3.77 3.93V20h4.18v-7.77c0-2.26-.17-7.76-6.73-7.76-2.78 0-4.2.9-5.2 2.28h-.2V4.47h-4.2V20h4.2Zm26.06-9.57H39.3c.48-1.58 1.76-2.44 4.09-2.44 2.99 0 3.75 1.27 4.1 2.44ZM70.5 4.46V20h-4.21v-2.17h-.13C65.1 19.18 63.34 20 60.43 20c-6.51 0-7.25-5.68-7.25-7.77v-.14c.03-2.34.82-7.63 7.26-7.63 2.87 0 4.62.9 5.67 2.28h.18V4.46h4.2Zm-8.85 11.92c-4 0-4.45-3.03-4.45-4.15 0-1.21.42-4.15 4.45-4.15 3.63 0 4.38 2.04 4.38 4.15 0 2.35-.74 4.15-4.38 4.15ZM98.73 20c5.09 0 7.78-2.07 8.21-5.4h-4.07c-.39 1.02-1.63 1.71-4.14 1.71-2.73 0-3.97-1.02-4.25-3.1H107c.24-2.13-.03-5.42-3.02-7.44a9.01 9.01 0 0 0-5.25-1.46c-5.24 0-8.34 2.77-8.34 7.84 0 5.17 3.02 7.85 8.34 7.85Zm-4.1-9.57h8.2c-.35-1.17-1.11-2.44-4.1-2.44-2.33 0-3.6.86-4.1 2.44ZM112.77 20v-6.97c0-2.1.93-4.54 4.05-4.54 1.33 0 2.4.23 2.78.34l.67-3.97-.23-.05c-.69-.16-1.51-.34-2.52-.34-2.67 0-3.62.79-4.49 2.28h-.26V4.47h-4.2V20h4.2Zm24.74-4.6c0 3.85-2.76 4.6-7.52 4.6-3.5 0-5.91-.64-7.16-1.9a3.9 3.9 0 0 1-1.06-2.86v-.61h4.32v.13c0 1.33 1 1.92 3.79 1.92 1.68 0 3.3-.21 3.3-1.22 0-1.17-1.5-1.4-3.17-1.59l-.66-.08c-4.46-.59-7.23-1.58-7.23-4.67 0-2.17 1.25-4.76 7.2-4.76 6.43 0 7.78 2.85 7.78 5.24v.14h-4.28V9.6c0-1.22-1.04-1.87-3.5-1.87-2.35 0-2.84.85-2.84 1.33 0 .69.48 1.07 3.18 1.47l.35.06.28.04.56.08c3.28.51 6.66 1.28 6.66 4.68Z" fill="#1D2026"/></svg>